# AST/ASF file generated using VICON BodyLanguage
# -----------------------------------------------
:version 1.10
:name VICON
:units
  mass 1.0
  length 0.45
  angle deg
:documentation
   .ast/.asf automatically generated from VICON data using
   VICON BodyBuilder and BodyLanguage model FoxedUp or BRILLIANT.MOD
:root
   order TX TY TZ RX RY RZ
   axis XYZ
   position 0 0 0  
   orientation 0 0 0 
:bonedata
  begin
     id 1 
     name lhipjoint
     direction 0.822369 -0.411937 0.392449 
     length 3.8167 
     axis 0 0 0  XYZ
  end
  begin
     id 2 
     name lfemur
     direction 0.34202 -0.939693 0  
     length 6.16791  
     axis 0 0 20  XYZ
    dof rx ry rz
    limits (-160.0 20.0)
           (-70.0 70.0)
           (-60.0 70.0)
  end
  begin
     id 3 
     name ltibia
     direction 0.34202 -0.939693 0   
     length 7.07101   
     axis 0 0 20   XYZ
    dof rx
    limits (-10.0 170.0)
  end
  begin
     id 4 
     name lfoot
     direction 0.028254 -0.0776273 0.996582   
     length 1.66799   
     axis -90 7.62852e-016 20   XYZ
    dof rx rz
    limits (-45.0 90.0)
           (-70.0 20.0)
  end
  begin
     id 5 
     name ltoes
     direction 1.53483e-011 -4.21688e-011 1   
     length 0.851674   
     axis -90 7.62852e-016 20   XYZ
    dof rx
    limits (-90.0 20.0)
  end
  begin
     id 6 
     name rhipjoint
     direction -0.822466 -0.411836 0.392353   
     length 3.81764  
     axis 0 0 0  XYZ 
  end
  begin
     id 7 
     name rfemur
     direction -0.34202 -0.939693 0   
     length 6.28636   
     axis 0 0 -20   XYZ
    dof rx ry rz
    limits (-160.0 20.0)
           (-70.0 70.0)
           (-70.0 60.0)
  end
  begin
     id 8 
     name rtibia
     direction -0.34202 -0.939693 0   
     length 6.85621   
     axis 0 0 -20   XYZ
    dof rx
    limits (-10.0 170.0)
 end
 begin
     id 9 
     name rfoot
     direction -0.0553036 -0.151945 0.98684   
     length 1.57293  
     axis -90 -7.62852e-016 -20   XYZ
    dof rx rz
    limits (-45.0 90.0)
           (-20.0 70.0)
  end
  begin
     id 10 
     name rtoes
     direction -1.53592e-011 -4.21964e-011 1   
     length 0.802812   
     axis -90 -7.62852e-016 -20   XYZ
    dof rx
    limits (-90.0 20.0)
  end
  begin
     id 11 
     name lowerback
     direction 0.00654913 0.996475 -0.0836396   
     length 1.97212   
     axis 0 0 0   XYZ
    dof rx ry rz
    limits (-20.0 45.0)
           (-30.0 30.0)
           (-30.0 30.0)
  end
  begin
     id 12 
     name upperback
     direction 0.0111875 0.994527 0.103877   
     length 1.89704   
     axis 0 0 0   XYZ
    dof rx ry rz
    limits (-20.0 45.0)
           (-30.0 30.0)
           (-30.0 30.0)
  end
  begin
     id 13 
     name thorax
     direction 0.00473652 0.989004 0.147814   
     length 1.94516   
     axis 0 0 0   XYZ
    dof rx ry rz
    limits (-20.0 45.0)
           (-30.0 30.0)
           (-30.0 30.0)
  end
  begin
     id 14 
     name lowerneck
     direction -0.00925808 0.999011 0.0434791   
     length 1.81771   
     axis 0 0 0   XYZ
    dof rx ry rz
    limits (-20.0 45.0)
           (-30.0 30.0)
           (-30.0 30.0)
  end
  begin
     id 15 
     name upperneck
     direction 0.00451595 0.964412 -0.264365   
     length 1.80434   
     axis 0 0 0   XYZ
    dof rx ry rz
    limits (-20.0 45.0)
           (-30.0 30.0)
           (-30.0 30.0)
  end
  begin
     id 16
     name head
     direction -0.00110849 0.995756 -0.0920241  
     length 1.84006  
     axis 0 0 0   XYZ
    dof rx ry rz
    limits (-20.0 45.0)
           (-30.0 30.0)
           (-30.0 30.0)
  end
  begin
     id 17 
     name lclavicle
     direction 0.921253 0.385213 0.0538957  
     length 3.67415  
     axis 0 0 0   XYZ
    dof ry rz
    limits (-20.0 10.0)
           (0.0 20.0)
  end
  begin
     id 18 
     name lhumerus
     direction 1 -4.48961e-011 6.73441e-028   
     length 4.32712   
     axis 180 -30 -90   XYZ
    dof rx ry rz
    limits (-60.0 90.0)
           (-90.0 90.0)
           (-90.0 90.0)
  end
  begin
     id 19
     name lradius
     direction 1 -4.48985e-011 -9.53507e-028   
     length 3.28587   
     axis 180 -30 -90   XYZ
    dof rx
    limits (-10.0 170.0)
  end
  begin
     id 20
     name lwrist
     direction 1 -4.48951e-011 -4.67472e-027   
     length 1.64293   
     axis 1.65735e-015 90 90   XYZ
    dof ry
    limits (-180.0 0.0)
 end
  begin
     id 21 
     name lhand
     direction 1 -4.48946e-011 -9.34945e-027   
     length 0.433158   
     axis 5.96574e-015 90 90   XYZ
    dof rx rz
    limits (-90.0 90.0)
           (-45.0 45.0)
  end
  begin
     id 22 
     name lfingers
     direction 1 -4.48882e-011 -1.86989e-026   
     length 0.349224   
     axis 1.19315e-014 90 90   XYZ
    dof rx
    limits (0.0 90.0)
  end
  begin
     id 23
     name lthumb
     direction 0.707107 -6.3493e-011 0.707107   
     length 0.501417   
     axis -90 45 2.85299e-015   XYZ
    dof rx rz
    limits (-45.0 45.0)
           (-45.0 45.0)
  end
  begin
     id 24 
     name rclavicle
     direction -0.884378 0.46502 -0.0403866   
     length 3.50218  
     axis 0 0 0   XYZ 
    dof ry rz
    limits (-10.0 20.0)
           (-20.0 0.0)
  end
  begin
     id 25 
     name rhumerus
     direction -1 -4.48964e-011 1.58188e-027  
     length 4.29104   
     axis 180 30 90   XYZ
    dof rx ry rz
    limits (-90.0 60.0)
           (-90.0 90.0)
           (-90.0 90.0)
  end
  begin
     id 26 
     name rradius
     direction -1 -4.48978e-011 -1.9722e-027   
     length 3.2272   
     axis 180 30 90   XYZ
    dof rx
    limits (-10.0 170.0)
  end
  begin
     id 27 
     name rwrist
     direction -1 -4.48969e-011 -4.67472e-027   
     length 1.6136   
     axis 1.65735e-015 -90 -90   XYZ
    dof ry
    limits (-180.0 0.0)
  end
  begin
     id 28
     name rhand
     direction -1 -4.48846e-011 -9.34945e-027   
     length 0.543623   
     axis 5.96574e-015 -90 -90   XYZ
    dof rx rz
    limits (-90.0 90.0)
           (-45.0 45.0)
  end
  begin
     id 29
     name rfingers
     direction -1 -4.49074e-011 -1.86989e-026   
     length 0.438283   
     axis 1.19315e-014 -90 -90   XYZ
    dof rx
    limits (0.0 90.0)
  end
  begin
     id 30
     name rthumb
     direction -0.707107 -6.34834e-011 0.707107   
     length 0.629289   
     axis -90 -45 -2.85299e-015   XYZ
    dof rx rz
    limits (-45.0 45.0)
           (-45.0 45.0)
  end
:hierarchy
  begin
    root lhipjoint rhipjoint lowerback
    lhipjoint lfemur
    lfemur ltibia
    ltibia lfoot
    lfoot ltoes
    rhipjoint rfemur
    rfemur rtibia
    rtibia rfoot
    rfoot rtoes
    lowerback upperback
    upperback thorax
    thorax lowerneck lclavicle rclavicle
    lowerneck upperneck
    upperneck head
    lclavicle lhumerus
    lhumerus lradius
    lradius lwrist
    lwrist lhand lthumb
    lhand lfingers
    rclavicle rhumerus
    rhumerus rradius
    rradius rwrist
    rwrist rhand rthumb
    rhand rfingers
  end

#!OML:ASF H:\GeneralSubjects\Female5\Project 1\Capture day 1\Session 1\Female5.ASF
:FULLY-SPECIFIED
:DEGREES
1
root -33.6378 15.9438 -1.86718 -146.976 78.1701 -165.696
lowerback 8.19193 -0.3251 -3.93083
upperback -9.34571 -0.107947 4.73948
thorax -15.0492 0.889113 7.57628
lowerneck -23.0207 5.60086 5.24849
upperneck 37.9183 9.14394 -3.19178
head 18.6332 4.35649 -0.217729
rclavicle -1.79403e-014 3.49861e-014
rhumerus -49.2951 15.1463 -73.6359
rradius 32.2682
rwrist -19.2646
rhand -20.9986 -24.5533
rfingers 7.12502
rthumb 5.37567 -54.4651
lclavicle -1.79403e-014 3.49861e-014
lhumerus -39.9842 1.1914 88.1374
lradius 38.6777
lwrist -6.92557
lhand -24.9906 34.7278
lfingers 7.12502
lthumb 1.52061 64.7021
rfemur -29.6317 10.3773 21.7728
rtibia 12.4443
rfoot -13.3468 -22.8437
rtoes -9.87694
lfemur 11.9208 -49.1985 -34.2154
ltibia -7.72133
lfoot -68.4146 21.4015
ltoes -45.1426
2
root -33.7002 15.9414 -1.93454 -148.087 78.2056 -166.747
lowerback 8.25534 -0.352531 -3.99963
upperback -9.27961 -0.184676 4.62154
thorax -14.9941 0.842115 7.49477
lowerneck -23.2684 4.83723 4.2519
upperneck 38.1452 7.94324 -2.18429
head 18.615 3.87998 0.154616
rclavicle -1.33683e-014 4.77083e-015
rhumerus -49.5409 15.4044 -74.3355
rradius 32.4949
rwrist -19.606
rhand -20.6549 -24.491
rfingers 7.12502
rthumb 5.70758 -54.3942
lclavicle -1.33683e-014 4.77083e-015
lhumerus -39.8933 2.14553 87.9568
lradius 37.8844
lwrist -7.87476
lhand -25.2091 34.6713
lfingers 7.12502
lthumb 1.30965 64.647
rfemur -30.2851 10.0669 21.1936
rtibia 13.5247
rfoot -13.7081 -22.7113
rtoes -10.1998
lfemur 11.7215 -49.3003 -34.5578
ltibia -7.79138
lfoot -68.5908 21.8356
ltoes -46.2485
3
root -33.7603 15.9312 -1.99994 -149.271 78.3002 -167.808
lowerback 8.40155 -0.358033 -4.22402
upperback -9.17207 -0.26002 4.51809
thorax -14.9454 0.812034 7.52184
lowerneck -23.5872 4.11183 3.43921
upperneck 38.3497 6.77817 -1.31408
head 18.6632 3.42272 0.44687
rclavicle -2.27608e-014 -2.38542e-014
rhumerus -49.6318 15.6293 -74.9242
rradius 32.7341
rwrist -19.4625
rhand -20.2127 -24.3844
rfingers 7.12502
rthumb 6.13444 -54.2755
lclavicle -2.27608e-014 -2.38542e-014
lhumerus -40.666 1.31655 88.4073
lradius 38.565
lwrist -6.90045
lhand -25.4222 35.9445
lfingers 7.12502
lthumb 1.10379 65.9214
rfemur -30.8728 9.88342 20.5905
rtibia 14.5818
rfoot -14.4324 -22.641
rtoes -10.876
lfemur 11.8181 -49.3254 -35.1291
ltibia -7.98127
lfoot -68.4869 22.2006
ltoes -46.4246
4
root -33.8134 15.9141 -2.06111 -150.424 78.4561 -168.815
lowerback 8.57648 -0.347412 -4.52085
upperback -9.07996 -0.32547 4.41168
thorax -14.9369 0.797005 7.58775
lowerneck -23.8897 3.41928 2.70741
upperneck 38.5773 5.67366 -0.515837
head 18.7634 2.99405 0.710404
rclavicle 2.88238e-015 3.97569e-014
rhumerus -49.6702 15.8497 -75.4656
rradius 32.8639
rwrist -19.2336
rhand -19.682 -23.7303
rfingers 7.12502
rthumb 6.64684 -53.6059
lclavicle 2.88238e-015 3.97569e-014
lhumerus -40.8167 1.75444 88.2826
lradius 37.8309
lwrist -7.07428
lhand -25.0582 36.1227
lfingers 7.12502
lthumb 1.45534 66.0975
rfemur -31.5594 9.69737 20.0593
rtibia 15.8437
rfoot -15.1878 -22.7277
rtoes -11.825
lfemur 12.1051 -49.2732 -35.8103
ltibia -8.27374
lfoot -68.3279 22.3127
ltoes -46.0995
5
root -33.8615 15.8941 -2.11726 -151.267 78.5981 -169.436
lowerback 8.83132 -0.326474 -4.72233
upperback -8.9916 -0.363916 4.30888
thorax -14.9877 0.787672 7.60058
lowerneck -24.1635 2.71489 1.96083
upperneck 38.8267 4.57312 0.274251
head 18.8989 2.56744 0.978132
rclavicle -1.36664e-014 -1.59028e-015
rhumerus -49.7496 16.0842 -75.9436
rradius 32.9318
rwrist -19.0635
rhand -19.0796 -22.7276
rfingers 7.12502
rthumb 7.2283 -52.5841
lclavicle -1.36664e-014 -1.59028e-015
lhumerus -41.153 2.14147 88.1181
lradius 37.21
lwrist -7.30172
lhand -24.2942 35.4
lfingers 7.12502
lthumb 2.19325 65.3685
rfemur -32.3234 9.4713 19.7365
rtibia 17.3499
rfoot -14.7251 -23.1084
rtoes -14.1758
lfemur 12.5623 -49.1731 -36.5013
ltibia -8.57879
lfoot -68.5945 21.6708
ltoes -45.7468
6
root -33.9066 15.871 -2.16991 -151.911 78.7602 -169.866
lowerback 9.07239 -0.306117 -4.91962
upperback -8.89285 -0.401303 4.21973
thorax -15.0173 0.778173 7.62562
lowerneck -24.4073 2.03731 1.25446
upperneck 39.0153 3.48945 1.06856
head 19.0216 2.15533 1.24571
rclavicle 4.57205e-015 -4.69132e-014
rhumerus -49.7173 16.1903 -76.2382
rradius 33.0404
rwrist -18.9843
rhand -18.275 -22.3272
rfingers 7.12502
rthumb 8.00496 -52.1556
lclavicle 4.57205e-015 -4.69132e-014
lhumerus -41.4525 2.56101 87.8946
lradius 36.4791
lwrist -7.62572
lhand -23.5824 34.7123
lfingers 7.12502
lthumb 2.88065 64.6726
rfemur -33.1963 9.1158 19.57
rtibia 19.0622
rfoot -14.2786 -23.6152
rtoes -16.4034
lfemur 12.6613 -49.0678 -36.977
ltibia -8.57535
lfoot -68.7985 21.6852
ltoes -46.0704
7
root -33.9459 15.8484 -2.21786 -152.099 78.9732 -169.896
lowerback 9.20462 -0.283106 -5.18757
upperback -8.78202 -0.437469 4.16773
thorax -14.9641 0.775823 7.72949
lowerneck -24.6153 1.43494 0.672445
upperneck 39.1295 2.45002 1.88272
head 19.1208 1.78322 1.51066
rclavicle -1.65985e-014 2.62396e-014
rhumerus -49.6414 16.0977 -76.3623
rradius 33.2424
rwrist -18.6447
rhand -17.7525 -22.2284
rfingers 7.12502
rthumb 8.50918 -52.037
lclavicle -1.65985e-014 2.62396e-014
lhumerus -41.3244 3.73523 87.2386
lradius 34.9721
lwrist -8.68753
lhand -22.805 34.5481
lfingers 7.12502
lthumb 3.63144 64.4969
rfemur -34.2443 8.55573 19.6727
rtibia 20.9549
rfoot -14.5432 -24.1502
rtoes -16.6897
lfemur 12.3722 -48.9218 -37.1438
ltibia -8.35061
lfoot -68.332 23.4976
ltoes -47.0412
8
root -33.9747 15.8273 -2.26146 -151.733 79.1703 -169.359
lowerback 9.30508 -0.268536 -5.36951
upperback -8.67691 -0.465525 4.13716
thorax -14.8979 0.76951 7.80547
lowerneck -24.8047 0.867987 0.0959106
upperneck 39.2296 1.44149 2.75497
head 19.2321 1.43497 1.81226
rclavicle 3.58806e-014 1.43125e-014
rhumerus -49.6887 15.8287 -76.4191
rradius 33.3613
rwrist -18.1766
rhand -17.8857 -22.0745
rfingers 7.12502
rthumb 8.3806 -51.8882
lclavicle 3.58806e-014 1.43125e-014
lhumerus -42.503 2.11009 87.654
lradius 35.7625
lwrist -7.03777
lhand -21.8046 35.7587
lfingers 7.12502
lthumb 4.59746 65.6889
rfemur -35.4017 7.77824 20.1464
rtibia 22.9618
rfoot -16.8093 -24.4756
rtoes -11.3178
lfemur 12.2815 -48.7229 -37.2712
ltibia -8.25768
lfoot -67.4825 24.9237
ltoes -47.2754
9
root -33.9888 15.8094 -2.30329 -151.546 79.34 -168.992
lowerback 9.50325 -0.291585 -5.48163
upperback -8.64825 -0.538763 4.07818
thorax -14.9773 0.743337 7.82545
lowerneck -25.0091 0.154503 -0.040178
upperneck 39.3091 0.293586 2.91294
head 19.3693 0.991907 1.65541
rclavicle -4.96962e-016 4.29375e-014
rhumerus -49.9689 15.7346 -76.6949
rradius 33.3978
rwrist -18.3523
rhand -18.4773 -22.1537
rfingers 7.12502
rthumb 7.80972 -51.9895
lclavicle -4.96962e-016 4.29375e-014
lhumerus -42.613 3.11747 86.7765
lradius 34.239
lwrist -8.47588
lhand -21.0062 34.8891
lfingers 7.12502
lthumb 5.36833 64.8011
rfemur -36.5558 6.80704 20.7736
rtibia 25.049
rfoot -15.2279 -24.9264
rtoes -13.0291
lfemur 12.5157 -48.5262 -37.5979
ltibia -8.32959
lfoot -67.0449 24.8105
ltoes -47.7157
10
root -33.9928 15.8008 -2.34492 -151.955 79.5915 -169.281
lowerback 9.68609 -0.307569 -5.69592
upperback -8.66839 -0.623626 3.97633
thorax -15.1054 0.724481 7.85944
lowerneck -25.3362 -0.510366 0.134486
upperneck 39.6031 -0.7271 2.63305
head 19.6702 0.588111 1.26404
rclavicle 3.42407e-014 1.31198e-014
rhumerus -50.3027 15.7426 -77.0037
rradius 33.4762
rwrist -19.02
rhand -19.0026 -22.1845
rfingers 7.12502
rthumb 7.30264 -52.0385
lclavicle 3.42407e-014 1.31198e-014
lhumerus -42.7617 3.69655 86.0137
lradius 32.625
lwrist -9.82618
lhand -20.9616 34.0588
lfingers 7.12502
lthumb 5.41141 63.9698
rfemur -37.7565 5.67636 21.4041
rtibia 27.0953
rfoot -16.5025 -25.0253
rtoes -9.94787
lfemur 12.9032 -48.2927 -38.1458
ltibia -8.5361
lfoot -67.0267 24.9164
ltoes -48.0498
11
root -33.9867 15.7969 -2.38262 -152.325 79.9094 -169.594
lowerback 9.60557 -0.282859 -5.99449
upperback -8.61035 -0.654588 3.88577
thorax -14.9806 0.723929 7.92846
lowerneck -25.4508 -1.12817 -0.0265596
upperneck 39.6621 -1.72226 2.81628
head 19.7713 0.210023 1.15064
rclavicle 1.03368e-014 1.39149e-014
rhumerus -50.445 15.5359 -77.0394
rradius 33.5376
rwrist -19.5761
rhand -19.0249 -22.484
rfingers 7.12502
rthumb 7.28113 -52.3387
lclavicle 1.03368e-014 1.39149e-014
lhumerus -42.7027 4.24439 85.3206
lradius 31.1998
lwrist -11.4534
lhand -20.9162 34.4663
lfingers 7.12502
lthumb 5.4553 64.3761
rfemur -38.9546 4.60079 22.1405
rtibia 28.7413
rfoot -17.1009 -25.276
rtoes -10.4721
lfemur 13.0245 -48.0278 -38.538
ltibia -8.5665
lfoot -67.7586 25.2865
ltoes -49.6834
